<svg id="Capa_1" enable-background="new 0 0 512.012 512.012" height="512" viewBox="0 0 512.012 512.012" width="512" xmlns="http://www.w3.org/2000/svg"><g><path d="m75.748 436.689-63.631 63.631c4.481 4.31 10.972 5.286 16.372 2.937.003.003 22.217-9.684 49.722-21.68z" fill="#3a4e66"/><path d="m23.761 498.546 43.026-28.39 8.961-33.467-45.308-2.882-21.686 49.716c-2.378 5.493-1.341 12.11 3.145 16.597.07.07.146.132.217.201 2.414 2.08 7.044 1.251 11.645-1.775z" fill="#496585"/><path d="m181.59 436.481 47.741-153.793-162.544 187.468 11.424 11.424c44.357-19.354 102.474-44.704 103.379-45.099z" fill="#ffdbb2"/><path d="m229.332 282.688-153.801 47.734-45.092 103.386 36.348 36.348 113.788-75.082z" fill="#ffefe0"/><path d="m336.624 132.969-156.049 262.105v33.64c0 2.686.353 5.29 1.015 7.767.007.007 186.853-186.839 186.853-186.839z" fill="#146cc4"/><path d="m262.377 143.576-186.844 186.844c2.476.661 5.078 1.014 7.763 1.014h33.64s262.098-156.032 262.098-156.032z" fill="#05a9f2"/><path d="m116.935 331.434v33.64c0 16.569 13.432 30 30 30h33.64l5.272-5.262 203.809-203.809-63.645-63.645z" fill="#1188d9"/><path d="m368.425 249.646-21.213-21.213 21.213-106.066 21.213 106.066z" fill="#e8f8ff"/><path d="m347.212 228.433-84.853-84.853 21.213-21.213 127.28 42.426z" fill="#fff"/><path d="m495.713 79.932-21.213-21.213-106.075 148.5 21.213 21.213 106.074-106.074c11.717-11.716 11.717-30.71.001-42.426z" fill="#3a4e66"/><path d="m474.5 58.719-42.426-42.426c-11.716-11.716-30.711-11.716-42.426 0l-106.076 106.074 84.853 84.853 106.075-106.075c11.715-11.716 11.715-30.711 0-42.426z" fill="#496585"/><path d="m501.029 74.61-63.641-63.64c-14.62-14.621-38.411-14.622-53.033 0l-84.861 84.861c-2.929 2.929-2.929 7.678 0 10.606 2.93 2.929 7.678 2.929 10.607 0l84.861-84.861c8.771-8.772 23.048-8.772 31.819 0l63.64 63.64c4.25 4.25 6.591 9.9 6.591 15.91s-2.341 11.66-6.591 15.91l-100.771 100.772-100.762-100.763c-1.407-1.407-3.314-2.197-5.304-2.197s-3.896.79-5.304 2.197l-208.047 208.048c-.663.663-1.195 1.445-1.57 2.305 0 0-66.516 152.511-66.742 153.142-3.754 8.522-1.903 18.289 4.673 24.866 4.322 4.322 10.026 6.603 15.862 6.603 3.035 0 6.106-.618 9.037-1.886l153.108-66.785c.859-.375 1.641-.908 2.305-1.571l314.123-314.123c7.082-7.083 10.983-16.5 10.983-26.516s-3.901-19.435-10.983-26.518zm-312.942 323.552 159.138-159.139 10.604 10.604-169.742 169.743zm-10.607-10.607h-30.533c-12.406 0-22.5-10.093-22.5-22.5v-30.533l159.138-159.139 53.033 53.033zm-63.639-63.64h-21.218l169.747-169.747 10.608 10.608zm-33.77 14.844c1.075.092 2.154.156 3.237.156h26.14v26.14c0 20.678 16.822 37.5 37.5 37.5h26.14v26.14c0 1.081.063 2.158.155 3.231l-93.345 40.717-40.54-40.54c15.583-35.73 34.242-78.51 40.713-93.344zm-54.558 157.606c-2.857 1.237-6.123.624-8.313-1.566-2.189-2.189-2.804-5.445-1.564-8.294.009-.021 7.68-17.62 17.279-39.63l32.211 32.211zm342.924-257.345-95.459-95.459 10.607-10.607 95.459 95.459z"/></g></svg>